<svg width="800" height="800" viewBox="0 0 800 800" xmlns="http://www.w3.org/2000/svg">
  <defs>
    <linearGradient id="bg" x1="800" y1="0" x2="0" y2="800" gradientUnits="userSpaceOnUse">
      <stop stop-color="#ECF3F6"/><stop offset="1" stop-color="#D6E6EC"/>
    </linearGradient>
    <radialGradient id="gl" cx="400" cy="400" r="200" gradientUnits="userSpaceOnUse">
      <stop stop-color="#6BA3B5" stop-opacity=".1"/><stop offset="1" stop-color="#6BA3B5" stop-opacity="0"/>
    </radialGradient>
  </defs>
  <rect width="800" height="800" fill="url(#bg)"/>
  <circle cx="400" cy="400" r="200" fill="url(#gl)"/>
  <g opacity=".28" fill="#6BA3B5">
    <circle cx="400" cy="260" r="11"/><circle cx="462" cy="272" r="9"/><circle cx="516" cy="302" r="11"/>
    <circle cx="540" cy="348" r="9"/><circle cx="540" cy="452" r="9"/><circle cx="516" cy="498" r="11"/>
    <circle cx="462" cy="528" r="9"/><circle cx="400" cy="540" r="11"/><circle cx="338" cy="528" r="9"/>
    <circle cx="284" cy="498" r="11"/><circle cx="260" cy="452" r="9"/><circle cx="260" cy="348" r="9"/>
    <circle cx="284" cy="302" r="11"/><circle cx="338" cy="272" r="9"/>
  </g>
  <circle cx="400" cy="400" r="80" fill="none" stroke="#8DBAC8" stroke-width="1.5" opacity=".15"/>
  <circle cx="400" cy="400" r="10" fill="#6BA3B5" opacity=".25"/>
</svg>
