<svg width="800" height="800" viewBox="0 0 800 800" xmlns="http://www.w3.org/2000/svg">
  <defs>
    <linearGradient id="bg" x1="0" y1="0" x2="800" y2="800" gradientUnits="userSpaceOnUse">
      <stop stop-color="#F0F5F1"/><stop offset="1" stop-color="#DDE9E0"/>
    </linearGradient>
    <radialGradient id="gl" cx="400" cy="400" r="180" gradientUnits="userSpaceOnUse">
      <stop stop-color="#8BAF96" stop-opacity=".12"/><stop offset="1" stop-color="#8BAF96" stop-opacity="0"/>
    </radialGradient>
  </defs>
  <rect width="800" height="800" fill="url(#bg)"/>
  <circle cx="400" cy="400" r="180" fill="url(#gl)"/>
  <circle cx="400" cy="400" r="110" fill="none" stroke="#8BAF96" stroke-width="1.5" opacity=".18"/>
  <g opacity=".32" fill="#8BAF96">
    <circle cx="400" cy="290" r="14"/><circle cx="400" cy="510" r="14"/>
    <circle cx="290" cy="400" r="14"/><circle cx="510" cy="400" r="14"/>
    <circle cx="322" cy="322" r="12"/><circle cx="478" cy="322" r="12"/>
    <circle cx="322" cy="478" r="12"/><circle cx="478" cy="478" r="12"/>
  </g>
  <g opacity=".18" fill="#9FC898">
    <circle cx="400" cy="330" r="7"/><circle cx="400" cy="470" r="7"/>
    <circle cx="330" cy="400" r="7"/><circle cx="470" cy="400" r="7"/>
    <circle cx="350" cy="350" r="6"/><circle cx="450" cy="350" r="6"/>
    <circle cx="350" cy="450" r="6"/><circle cx="450" cy="450" r="6"/>
  </g>
  <circle cx="400" cy="400" r="22" fill="#8BAF96" opacity=".2"/>
  <circle cx="400" cy="400" r="10" fill="#8BAF96" opacity=".35"/>
</svg>
