<svg width="800" height="800" viewBox="0 0 800 800" xmlns="http://www.w3.org/2000/svg">
  <defs>
    <linearGradient id="bg" x1="0" y1="0" x2="800" y2="800" gradientUnits="userSpaceOnUse">
      <stop stop-color="#F3F0FB"/><stop offset="1" stop-color="#E5DDF5"/>
    </linearGradient>
    <radialGradient id="gl" cx="400" cy="380" r="220" gradientUnits="userSpaceOnUse">
      <stop stop-color="#9E8BBF" stop-opacity=".1"/><stop offset="1" stop-color="#9E8BBF" stop-opacity="0"/>
    </radialGradient>
  </defs>
  <rect width="800" height="800" fill="url(#bg)"/>
  <circle cx="400" cy="380" r="220" fill="url(#gl)"/>
  <path d="M200 220 Q400 540 600 220" fill="none" stroke="#9E8BBF" stroke-width="1.5" opacity=".18"/>
  <g opacity=".35" fill="#9E8BBF">
    <circle cx="200" cy="220" r="11"/><circle cx="234" cy="264" r="9"/><circle cx="272" cy="306" r="11"/>
    <circle cx="316" cy="344" r="9"/><circle cx="362" cy="372" r="11"/><circle cx="400" cy="384" r="14"/>
    <circle cx="438" cy="372" r="11"/><circle cx="484" cy="344" r="9"/><circle cx="528" cy="306" r="11"/>
    <circle cx="566" cy="264" r="9"/><circle cx="600" cy="220" r="11"/>
  </g>
  <g opacity=".18" fill="#B8A8D4">
    <circle cx="218" cy="240" r="6"/><circle cx="254" cy="284" r="5"/><circle cx="294" cy="324" r="6"/>
    <circle cx="340" cy="358" r="5"/><circle cx="382" cy="378" r="6"/><circle cx="418" cy="378" r="6"/>
    <circle cx="460" cy="358" r="5"/><circle cx="506" cy="324" r="6"/><circle cx="546" cy="284" r="5"/>
    <circle cx="582" cy="240" r="6"/>
  </g>
  <circle cx="400" cy="395" r="18" fill="#9E8BBF" opacity=".2"/>
  <circle cx="400" cy="395" r="8" fill="#9E8BBF" opacity=".35"/>
</svg>
