<svg width="800" height="800" viewBox="0 0 800 800" xmlns="http://www.w3.org/2000/svg">
  <defs>
    <linearGradient id="bg" x1="0" y1="0" x2="800" y2="800" gradientUnits="userSpaceOnUse">
      <stop stop-color="#F2F7F0"/>
      <stop offset="1" stop-color="#DFEBDC"/>
    </linearGradient>
    <radialGradient id="gl" cx="400" cy="380" r="180" gradientUnits="userSpaceOnUse">
      <stop stop-color="#7FAF78" stop-opacity=".1"/>
      <stop offset="1" stop-color="#7FAF78" stop-opacity="0"/>
    </radialGradient>
  </defs>
  <rect width="800" height="800" fill="url(#bg)"/>
  <circle cx="400" cy="380" r="180" fill="url(#gl)"/>
  <circle cx="400" cy="380" r="100" fill="none" stroke="#7FAF78" stroke-width="1.5" opacity=".2"/>
  <g opacity=".3" fill="#7FAF78">
    <circle cx="400" cy="280" r="14"/><circle cx="400" cy="480" r="14"/>
    <circle cx="300" cy="380" r="14"/><circle cx="500" cy="380" r="14"/>
    <circle cx="330" cy="310" r="12"/><circle cx="470" cy="310" r="12"/>
    <circle cx="330" cy="450" r="12"/><circle cx="470" cy="450" r="12"/>
  </g>
  <g opacity=".18" fill="#9FC898">
    <circle cx="400" cy="310" r="7"/><circle cx="400" cy="450" r="7"/>
    <circle cx="330" cy="380" r="7"/><circle cx="470" cy="380" r="7"/>
    <circle cx="350" cy="330" r="6"/><circle cx="450" cy="330" r="6"/>
    <circle cx="350" cy="430" r="6"/><circle cx="450" cy="430" r="6"/>
  </g>
  <circle cx="400" cy="380" r="22" fill="#7FAF78" opacity=".2"/>
  <circle cx="400" cy="380" r="10" fill="#7FAF78" opacity=".35"/>
  <g opacity=".12" fill="#7FAF78">
    <circle cx="400" cy="230" r="5"/><circle cx="400" cy="530" r="5"/>
    <circle cx="250" cy="380" r="5"/><circle cx="550" cy="380" r="5"/>
  </g>
  <text x="400" y="660" font-family="Georgia,serif" font-size="28" fill="#7FAF78" text-anchor="middle" opacity=".5">@>H8</text>
</svg>
