<svg width="800" height="800" viewBox="0 0 800 800" xmlns="http://www.w3.org/2000/svg">
  <defs>
    <linearGradient id="bg" x1="0" y1="0" x2="800" y2="800" gradientUnits="userSpaceOnUse">
      <stop stop-color="#F0F3FB"/>
      <stop offset="1" stop-color="#DCE2F2"/>
    </linearGradient>
    <radialGradient id="gl" cx="400" cy="380" r="200" gradientUnits="userSpaceOnUse">
      <stop stop-color="#8898C4" stop-opacity=".1"/>
      <stop offset="1" stop-color="#8898C4" stop-opacity="0"/>
    </radialGradient>
  </defs>
  <rect width="800" height="800" fill="url(#bg)"/>
  <circle cx="400" cy="380" r="200" fill="url(#gl)"/>
  <g opacity=".3">
    <line x1="300" y1="240" x2="300" y2="270" stroke="#8898C4" stroke-width="2"/>
    <circle cx="300" cy="300" r="10" fill="#8898C4"/><circle cx="300" cy="330" r="12" fill="#8898C4"/>
    <circle cx="300" cy="365" r="14" fill="#8898C4"/><circle cx="300" cy="404" r="16" fill="#8898C4"/>
    <circle cx="300" cy="446" r="14" fill="#8898C4"/><circle cx="300" cy="480" r="10" fill="#8898C4"/>
    <circle cx="300" cy="504" r="6" fill="#8898C4"/>
  </g>
  <g opacity=".3">
    <line x1="500" y1="240" x2="500" y2="270" stroke="#8898C4" stroke-width="2"/>
    <circle cx="500" cy="300" r="10" fill="#8898C4"/><circle cx="500" cy="330" r="12" fill="#8898C4"/>
    <circle cx="500" cy="365" r="14" fill="#8898C4"/><circle cx="500" cy="404" r="16" fill="#8898C4"/>
    <circle cx="500" cy="446" r="14" fill="#8898C4"/><circle cx="500" cy="480" r="10" fill="#8898C4"/>
    <circle cx="500" cy="504" r="6" fill="#8898C4"/>
  </g>
  <g opacity=".15" fill="#A4B0D8">
    <circle cx="285" cy="350" r="5"/><circle cx="315" cy="350" r="5"/>
    <circle cx="285" cy="400" r="6"/><circle cx="315" cy="400" r="6"/>
    <circle cx="485" cy="350" r="5"/><circle cx="515" cy="350" r="5"/>
    <circle cx="485" cy="400" r="6"/><circle cx="515" cy="400" r="6"/>
  </g>
  <text x="400" y="660" font-family="Georgia,serif" font-size="28" fill="#8898C4" text-anchor="middle" opacity=".5">!5@L38</text>
</svg>
