<svg width="800" height="800" viewBox="0 0 800 800" xmlns="http://www.w3.org/2000/svg">
  <defs>
    <linearGradient id="bg" x1="0" y1="0" x2="800" y2="800" gradientUnits="userSpaceOnUse">
      <stop stop-color="#FBF0F2"/>
      <stop offset="1" stop-color="#F0D8DE"/>
    </linearGradient>
    <radialGradient id="gl" cx="400" cy="360" r="220" gradientUnits="userSpaceOnUse">
      <stop stop-color="#C08890" stop-opacity=".1"/>
      <stop offset="1" stop-color="#C08890" stop-opacity="0"/>
    </radialGradient>
  </defs>
  <rect width="800" height="800" fill="url(#bg)"/>
  <circle cx="400" cy="360" r="220" fill="url(#gl)"/>
  <path d="M200 200 Q400 520 600 200" fill="none" stroke="#C08890" stroke-width="2" opacity=".2"/>
  <path d="M220 190 Q400 490 580 190" fill="none" stroke="#C08890" stroke-width="1.5" opacity=".15"/>
  <g opacity=".35" fill="#C08890">
    <circle cx="200" cy="200" r="12"/><circle cx="230" cy="240" r="10"/><circle cx="265" cy="280" r="12"/>
    <circle cx="305" cy="320" r="10"/><circle cx="350" cy="355" r="12"/><circle cx="400" cy="370" r="14"/>
    <circle cx="450" cy="355" r="12"/><circle cx="495" cy="320" r="10"/><circle cx="535" cy="280" r="12"/>
    <circle cx="570" cy="240" r="10"/><circle cx="600" cy="200" r="12"/>
  </g>
  <g opacity=".2" fill="#D4A4AA">
    <circle cx="215" cy="218" r="6"/><circle cx="248" cy="258" r="5"/><circle cx="285" cy="298" r="6"/>
    <circle cx="328" cy="336" r="5"/><circle cx="375" cy="362" r="6"/><circle cx="425" cy="362" r="6"/>
    <circle cx="472" cy="336" r="5"/><circle cx="515" cy="298" r="6"/><circle cx="552" cy="258" r="5"/>
    <circle cx="585" cy="218" r="6"/>
  </g>
  <circle cx="400" cy="380" r="18" fill="#C08890" opacity=".2"/>
  <circle cx="400" cy="380" r="8" fill="#C08890" opacity=".35"/>
  <text x="400" y="660" font-family="Georgia,serif" font-size="28" fill="#C08890" text-anchor="middle" opacity=".5">>;L5</text>
</svg>
